<svg id="Layer_1" data-name="Layer 1" xmlns="http://www.w3.org/2000/svg" viewBox="0 0 622.4 98.23"><defs><style>.cls-1{fill:#56abcb;}.cls-2{fill:#1d1d1b;}</style></defs><title>arts-etobicoke-logo</title><path id="logo_art" class="cls-1" d="M220.1.17c-2.11-.57-2.87.21-4,3.59s-2.5,6.45-3.25,8.52-2.68,11-3.67,13.22-7.25,17.28-10.68,17.62-5.11-1.53-5.07-3-.15-14.8-.52-15.93-.77-2.25-1.52-1.9.86,19.33.87,20.48-1,5.31-2.49,5.11-3.95-2.31-4.54-3.44-4.69-10.82-5.44-10.8-1.92,1.69-.78,2.46,6.23,10.81,5.84,11.57-3.6.37-3.6.37l-2.08-3.64s1.12,2.5-1.53,3.06S170.05,46,169.3,47s-.39,3.58.53,4.72,3.19,4.77,2.46,5.69-1.36,1.16-3.06,2.48-5.7,3.76-5.7,3.76,3.61-.19,3.22,1.34-.76,3.2-1.71,3.39-2.44.57-2.44.57,2.8,1.7,4.32,2.49,3.58,2.07,3.38,3a15.36,15.36,0,0,1-1.13,2.86,8.3,8.3,0,0,1,3,.57c1.13.57,2.47,2.31,2.07,3.06a27.46,27.46,0,0,1-2.47,3s5.51-2.42,5.88-1.09,1.12,4.17.15,5.12-8.36,6.21-7,7.93,3.39,3.25,4.54,1.71,6.83-7,7.4-8.1,3.64-4.15,4.76-3.79,4.57,2.33,5.69,3.83,2.61,7.95,2.61,7.95,2.1-2.24,2.11-4.34.38-6.26,1.73-6.62,4,2.29,6,3.61,4.74,2.68,5.32,1.93,1.37-6.63.8-9.09,0-3.79.6-3.61S218,83.56,218,83a36.43,36.43,0,0,0-1.48-4.36l12.09,7.06s-14.92-11.24-14.9-12.57,3.57-4.53,6.84-4.73,11.35-.67,12.48-1.09,4.18-3.38,3.26-4.72-2.46-1.73-6.08-1.73-7.38,1.68-8.13,0-2.25-2.3-.74-3.41,4.74-4,4.74-4l-4.91.76s-3.22.52-4.36-.22-2.64-2.86-1.3-3.64,9.26-6,9.26-6S212.31,49.06,210,49.24s-4,2.26-4.72.17a23.84,23.84,0,0,1-.71-9.1c.37-1.72,14.69-36.14,14.69-36.14l.82-4"/><g id="logo_text"><path class="cls-2" d="M240.22,79.56V39.89h21.32V44H246.35q-.49,0-.78,0a3.64,3.64,0,0,1-.53-.09,3.79,3.79,0,0,1,.09.54c0,.2,0,.46,0,.77v9.48c0,.31,0,.57,0,.77A3.36,3.36,0,0,1,245,56a2.69,2.69,0,0,1,.53-.08q.28,0,.78,0h15.19v4H246.35q-.49,0-.78,0a3.64,3.64,0,0,1-.53-.09,3.79,3.79,0,0,1,.09.54c0,.21,0,.46,0,.77V74.27c0,.31,0,.57,0,.77a3.79,3.79,0,0,1-.09.54,3.64,3.64,0,0,1,.53-.09q.28,0,.78,0h15.19v4.1Z"/><path class="cls-2" d="M288,79.56V45.18c0-.31,0-.57,0-.77a3.79,3.79,0,0,1,.09-.54,3.79,3.79,0,0,1-.54.09c-.2,0-.46,0-.77,0H276.62v-4.1h27.63V44H294.13c-.33,0-.59,0-.79,0a3.74,3.74,0,0,1-.52-.09,3.79,3.79,0,0,1,.09.54c0,.2,0,.46,0,.77V79.56Z"/><path class="cls-2" d="M337.37,80.52A22.09,22.09,0,0,1,329,78.94a20.69,20.69,0,0,1-6.69-4.35,19.91,19.91,0,0,1-4.43-6.6,22.33,22.33,0,0,1-.06-16.55,18.56,18.56,0,0,1,4.64-6.61,21.85,21.85,0,0,1,6.85-4.46,22.23,22.23,0,0,1,8.27-1.44,20.91,20.91,0,0,1,15.19,5.9,19.92,19.92,0,0,1,6.13,14.89,21.28,21.28,0,0,1-1.6,8.35,19.51,19.51,0,0,1-4.46,6.58A20.74,20.74,0,0,1,346,79,23.42,23.42,0,0,1,337.37,80.52Zm0-4.3a16.71,16.71,0,0,0,9.31-2.62,14.73,14.73,0,0,0,3.28-3,18,18,0,0,0,2.21-3.52,15.53,15.53,0,0,0,1.23-3.75,20.66,20.66,0,0,0,.34-3.68,16.54,16.54,0,0,0-2.61-9.17,13.89,13.89,0,0,0-6.37-5.67,18.54,18.54,0,0,0-7.22-1.6A15.88,15.88,0,0,0,325,49a15,15,0,0,0-2.14,3.46,16.17,16.17,0,0,0-1.13,3.69,20.17,20.17,0,0,0-.34,3.65,17.25,17.25,0,0,0,1.22,6.53A15.64,15.64,0,0,0,331,75,16,16,0,0,0,337.37,76.22Z"/><path class="cls-2" d="M378.05,79.56V39.89h9.83a17.16,17.16,0,0,1,4.61.59A10.61,10.61,0,0,1,396,42.1a9,9,0,0,1,2.78,3.5,11.36,11.36,0,0,1,1,4.7q0,6.14-6.43,8.29l.06.23a9.37,9.37,0,0,1,6.7,2.78c1.57,1.7,2.34,4.09,2.34,7.17a10.45,10.45,0,0,1-3,7.93q-3,2.86-8.26,2.86Zm4.83-22.05.52-.08c.2,0,.46,0,.79,0h2.73q8,0,8-6.66a7.76,7.76,0,0,0-.8-3.55,5.48,5.48,0,0,0-2.17-2.36,11.91,11.91,0,0,0-5.58-1.07h-2.15c-.33,0-.59,0-.79,0a3.5,3.5,0,0,1-.52-.09,3.57,3.57,0,0,1,.09.54c0,.2,0,.46,0,.77V56.21q0,.49,0,.78A3.5,3.5,0,0,1,382.88,57.51Zm0,18.3a3.5,3.5,0,0,1,.52-.09c.2,0,.46,0,.79,0h4.65q8.7,0,8.7-7.27,0-7.44-8.84-7.44h-4.51c-.33,0-.59,0-.79,0a3.5,3.5,0,0,1-.52-.09,3.36,3.36,0,0,1,.09.54c0,.2,0,.46,0,.77V74.5c0,.31,0,.57,0,.77A3.57,3.57,0,0,1,382.88,75.81Z"/><path class="cls-2" d="M421.67,79.56V39.89h4.94V79.56Z"/><path class="cls-2" d="M466.42,80.58a22,22,0,0,1-8.32-1.53,18.85,18.85,0,0,1-10.72-10.72A22.14,22.14,0,0,1,445.86,60a20.87,20.87,0,0,1,3.4-11.84A18.47,18.47,0,0,1,457.4,41a23.9,23.9,0,0,1,9.37-2,24.25,24.25,0,0,1,5.41.59,33.49,33.49,0,0,1,5.79,2v5.78a13.49,13.49,0,0,0-4.8-3,17.39,17.39,0,0,0-6.11-1.06,15.24,15.24,0,0,0-9.1,2.85,14.32,14.32,0,0,0-5.62,6.61,19.38,19.38,0,0,0-1.54,7.21,17,17,0,0,0,1.31,6.56,15.66,15.66,0,0,0,15.07,9.82,16.92,16.92,0,0,0,5.93-1A14.32,14.32,0,0,0,478,72.17V77.9a30.46,30.46,0,0,1-5.31,1.94A24.61,24.61,0,0,1,466.42,80.58Z"/><path class="cls-2" d="M514.17,80.52a22.09,22.09,0,0,1-8.41-1.58,20.69,20.69,0,0,1-6.69-4.35,19.91,19.91,0,0,1-4.43-6.6,22.33,22.33,0,0,1-.06-16.55,18.56,18.56,0,0,1,4.64-6.61,22,22,0,0,1,6.85-4.46,22.23,22.23,0,0,1,8.27-1.44,20.91,20.91,0,0,1,15.19,5.9,19.92,19.92,0,0,1,6.13,14.89,21.28,21.28,0,0,1-1.6,8.35,19.51,19.51,0,0,1-4.46,6.58A20.64,20.64,0,0,1,522.81,79,23.42,23.42,0,0,1,514.17,80.52Zm0-4.3a16.71,16.71,0,0,0,9.31-2.62,14.52,14.52,0,0,0,3.28-3A18,18,0,0,0,529,67.1a15.11,15.11,0,0,0,1.23-3.75,20.66,20.66,0,0,0,.34-3.68,16.54,16.54,0,0,0-2.61-9.17,13.89,13.89,0,0,0-6.37-5.67,18.5,18.5,0,0,0-7.22-1.6A15.91,15.91,0,0,0,505.07,46a15.65,15.65,0,0,0-3.32,3,15,15,0,0,0-2.14,3.46,16.17,16.17,0,0,0-1.13,3.69,20.17,20.17,0,0,0-.34,3.65,17.25,17.25,0,0,0,1.22,6.53A15.64,15.64,0,0,0,507.8,75,16,16,0,0,0,514.17,76.22Z"/><path class="cls-2" d="M554.85,79.56V39.89h4.94v8.69c0,1.07,0,2.35,0,3.84s-.1,3.19-.18,5.09l.23.06c1.52-1.7,2.83-3.17,4-4.4l2.76-3,9.78-10.24h6l-17.1,17.68,18.87,22h-6.31l-11.2-13.23c-1.47-1.75-2.76-3.31-3.87-4.7s-2-2.61-2.85-3.68l-.23.12q.12,3.43.18,6.15c0,1.81,0,3.35,0,4.61V79.56Z"/><path class="cls-2" d="M601.08,79.56V39.89H622.4V44H607.22q-.5,0-.78,0a3.64,3.64,0,0,1-.53-.09,3.79,3.79,0,0,1,.09.54c0,.2,0,.46,0,.77v9.48c0,.31,0,.57,0,.77a3.36,3.36,0,0,1-.09.54,2.69,2.69,0,0,1,.53-.08q.28,0,.78,0H622.4v4H607.22q-.5,0-.78,0a3.64,3.64,0,0,1-.53-.09,3.79,3.79,0,0,1,.09.54c0,.21,0,.46,0,.77V74.27c0,.31,0,.57,0,.77a3.79,3.79,0,0,1-.09.54,3.64,3.64,0,0,1,.53-.09q.28,0,.78,0H622.4v4.1Z"/><path class="cls-2" d="M0,80.41,18.41,37.88l18,42.53H31L26,68H10.44l-5,12.39ZM11.75,64.26c.47,0,1.09-.06,1.86-.08s1.68,0,2.71,0H19.9q1.62,0,2.79,0c.77,0,1.39,0,1.86.08-.31-.67-.57-1.21-.77-1.61s-.36-.72-.48-1-.23-.5-.32-.75-.2-.53-.32-.88l-1.4-3.46q-2.06-5-3-8H18c-.34,1.08-.75,2.29-1.24,3.62S15.69,55,15,56.59l-1.43,3.46C12.75,62,12.14,63.43,11.75,64.26Z"/><path class="cls-2" d="M53.33,80.41V40.73H65.05c3.63,0,6.36.92,8.21,2.77S76,48.07,76,51.7a9.21,9.21,0,0,1-4.54,8.46,10.06,10.06,0,0,1-2.85,1.18,21.3,21.3,0,0,1-3.81.48l-.06.12q.8.9,1.65,2c.57.69,1.18,1.43,1.81,2.21l11,14.31H72.88l-10-13.59c-.93-1.26-1.78-2.44-2.54-3.56s-1.47-2.17-2.11-3.16l-.23.06c.07,2.18.14,4,.2,5.33s.09,2.33.09,2.88v12ZM58.16,58.3a3.74,3.74,0,0,1,.52-.09l.79,0H64q7,0,7-6.72t-7-6.75H59.47c-.33,0-.59,0-.79,0a3.74,3.74,0,0,1-.52-.09,3.79,3.79,0,0,1,.09.54c0,.2,0,.46,0,.77V57c0,.33,0,.59,0,.79A3.5,3.5,0,0,1,58.16,58.3Z"/><path class="cls-2" d="M101.4,80.41V46c0-.31,0-.57,0-.77a3.36,3.36,0,0,1,.09-.54,3.79,3.79,0,0,1-.54.09l-.77,0H90v-4.1h27.63v4.1H107.54l-.79,0a3.5,3.5,0,0,1-.52-.09,3.36,3.36,0,0,1,.09.54c0,.2,0,.46,0,.77V80.41Z"/><path class="cls-2" d="M144,81.54a11.68,11.68,0,0,1-7.93-2.78,13,13,0,0,1-4.17-7.57l4.65-2.1Q138,77,144.29,77a7.82,7.82,0,0,0,5.53-2A6.58,6.58,0,0,0,151.94,70,6.27,6.27,0,0,0,150,65.05q-1.31-1.14-6.89-3.4c-1.48-.57-2.66-1-3.55-1.47s-1.52-.72-1.89-.92a4.76,4.76,0,0,1-1-.77,8.69,8.69,0,0,1-1-1.09,10.68,10.68,0,0,1-1.76-3.11,11.88,11.88,0,0,1-.57-3.9,10.58,10.58,0,0,1,1.84-6.2,9.48,9.48,0,0,1,4.39-3.63,14.57,14.57,0,0,1,5.21-1,11.93,11.93,0,0,1,5,1.1,10.64,10.64,0,0,1,3.9,2.94,14.54,14.54,0,0,1,2,4l-4.48,1.95a11.77,11.77,0,0,0-2-3.58A6.44,6.44,0,0,0,147,44.62a6.86,6.86,0,0,0-2.58-.54,5.81,5.81,0,0,0-4.27,1.69,6.2,6.2,0,0,0,0,8.55c1.16,1,3.62,2.26,7.39,3.69,3.45,1.4,5.79,2.75,7,4a11.55,11.55,0,0,1,2.44,7.51,11.32,11.32,0,0,1-2.15,6.86,12.93,12.93,0,0,1-2.36,2.42,11.51,11.51,0,0,1-2.7,1.57,15.13,15.13,0,0,1-2.93.86A16.44,16.44,0,0,1,144,81.54Z"/></g></svg>